<svg width="64" height="64" viewBox="0 0 64 64" fill="none" xmlns="http://www.w3.org/2000/svg">
  <g transform="translate(32, 32) scale(0.22)">
    <!-- Using solid colors for clarity at small sizes -->
    <g transform="rotate(0)"><path d="M0 -60 C33.1 -60 60 -33.1 60 0 C60 33.1 33.1 60 0 60 C-33.1 60 -60 86.9 -60 120 L-60 -120 C-60 -86.9 -33.1 -60 0 -60 Z" fill="#22D3EE"/></g>
    <g transform="rotate(120)"><path d="M0 -60 C33.1 -60 60 -33.1 60 0 C60 33.1 33.1 60 0 60 C-33.1 60 -60 86.9 -60 120 L-60 -120 C-60 -86.9 -33.1 -60 0 -60 Z" fill="#10B981"/></g>
    <g transform="rotate(240)"><path d="M0 -60 C33.1 -60 60 -33.1 60 0 C60 33.1 33.1 60 0 60 C-33.1 60 -60 86.9 -60 120 L-60 -120 C-60 -86.9 -33.1 -60 0 -60 Z" fill="#A3E635"/></g>
    
    <!-- Center hole -->
    <circle cx="0" cy="0" r="30" fill="white" fill-opacity="0"/> 
    <!-- Note: Transparent center for favicon looks better on dark browser tabs -->
  </g>
</svg>
