<svg width="512" height="512" viewBox="0 0 512 512" fill="none" xmlns="http://www.w3.org/2000/svg">
  <!-- Document Page -->
  <path d="M384 512H128C92.65 512 64 483.35 64 448V64C64 28.65 92.65 0 128 0H304L448 144V448C448 483.35 419.35 512 384 512Z" fill="#F8FAFC"/>
  
  <!-- Folded Corner (Subtle Gray) -->
  <path d="M304 0V112C304 129.67 318.33 144 336 144H448" fill="#E2E8F0"/>
  
  <!-- Centered App Logo Mark -->
  <g transform="translate(256, 240) scale(0.8)">
    <!-- Reuse logo paths from app icon -->
    <g transform="rotate(0)"><path d="M0 -60 C33.1 -60 60 -33.1 60 0 C60 33.1 33.1 60 0 60 C-33.1 60 -60 86.9 -60 120 L-60 -120 C-60 -86.9 -33.1 -60 0 -60 Z" fill="#22D3EE"/></g>
    <g transform="rotate(120)"><path d="M0 -60 C33.1 -60 60 -33.1 60 0 C60 33.1 33.1 60 0 60 C-33.1 60 -60 86.9 -60 120 L-60 -120 C-60 -86.9 -33.1 -60 0 -60 Z" fill="#10B981"/></g>
    <g transform="rotate(240)"><path d="M0 -60 C33.1 -60 60 -33.1 60 0 C60 33.1 33.1 60 0 60 C-33.1 60 -60 86.9 -60 120 L-60 -120 C-60 -86.9 -33.1 -60 0 -60 Z" fill="#A3E635"/></g>
    <circle cx="0" cy="0" r="30" fill="#F8FAFC"/>
  </g>

  <!-- Extension Tag (Pill Style) -->
  <rect x="166" y="390" width="180" height="50" rx="12" fill="#0F172A"/>
  <text x="256" y="425" font-family="Arial, sans-serif" font-weight="bold" font-size="28" fill="#FFFFFF" text-anchor="middle" letter-spacing="1">TERX</text>
</svg>
